<svg id="Layer_1" data-name="Layer 1" xmlns="http://www.w3.org/2000/svg" width="69.1893mm" height="79.6838mm" viewBox="0 0 196.1273 225.8755">
  <path d="M366.8418,497.9737a27.896,27.896,0,0,1-13.5111-1.5957c-5.2371-2.0367-13.6773-7.2536-13.3094-12.9312.25-3.8552,4.3675-4.9412,10.2127-10.7234,5.2429-5.1863,7.7521-10.0717,11.2341-16.8511a79.19,79.19,0,0,0,9.1915-38.2978,78.249,78.249,0,0,0-6.6383-29.617c-7.1527-15.9-13.0715-15.8324-14.8085-27.5745-1.5035-10.1635,2.6634-13.3633.0876-26.57-1.6188-8.2994-4.6959-14.3757-3.9016-14.7438.7181-.3328,4.1005,4.232,6.3672,9.6542,3.4558,8.2668,1.42,11.5945,4.4152,15.1624,3.8337,4.5669,12.69,5.6925,18.5635,2.71,11.0291-5.6009,11.3667-25.6033,11.7446-25.5319.3962.0749-7.7688,20.572-4.085,42.8937,2.7621,16.7374,8.9785,19.244,15.7046,43.3608a121.7909,121.7909,0,0,1,4.2632,28.2054c.4754,14.7933,1.3531,42.103-16.2055,55.3669C382.7144,493.4984,376.6372,497.0078,366.8418,497.9737Z" transform="translate(-206.4308 -272.3234)" fill="#f9b233"/>
  <path d="M367.6649,346.11c-11.7989.1679-18.2053-4.7428-20.0653-15.6127-2.0011-11.6947-5.283-23.4293-5.257-35.1405.0275-12.3744,10.2212-21.4913,21.6045-22.8736,11.0087-1.3369,21.893,5.7962,26.2344,17.6627,6.5081,17.7887-1.9623,33.5751-8.126,49.2C380.6413,342.9306,372.6366,343.9243,367.6649,346.11Z" transform="translate(-206.4308 -272.3234)" fill="#f9b233"/>
  <path d="M347.9941,354.0075" transform="translate(-206.4308 -272.3234)" fill="#f9b233"/>
  <path d="M365.2074,418.9893c-.7986-42.8609-35.7773-76.6656-79.5979-77.1847-42.54-.5039-77.5206,32.7755-79.134,77.9434-1.5071,42.1885,35.3531,77.6594,78.9326,77.6625C333.2754,499.5347,365.9136,456.89,365.2074,418.9893ZM243.383,393.83a7.0213,7.0213,0,1,1,7.0212-7.0213A7.0213,7.0213,0,0,1,243.383,393.83Zm31.1489,21.817a7.0213,7.0213,0,1,1,7.0213-7.0213A7.0214,7.0214,0,0,1,274.5319,415.6468Zm16.34-35.86a7.0213,7.0213,0,1,1,7.0213-7.0213A7.0212,7.0212,0,0,1,290.8723,379.7872Z" transform="translate(-206.4308 -272.3234)" fill="#f9b233"/>
</svg>
