<svg id="Layer_1" data-name="Layer 1" xmlns="http://www.w3.org/2000/svg" width="132.9678mm" height="101.4043mm" viewBox="0 0 376.9165 287.4453">
  <path d="M272.52,541.5129c-28.8434.006-57.69.2832-86.5292-.076-26.12-.3254-34.7252-9.1449-34.9027-35.3268-.231-34.0671.1-68.1385-.2174-102.2042-.129-13.8507,3.9663-24.2532,16.964-31.439,4.6459-2.5684,9.2934-9.9527,9.27-15.1179-.0558-12.3722,3.6179-17.1174,16.21-22.2931,34.2613-14.0818,65.1593-34.3159,88.0306-64.59,3.2229-4.266,6.7054-8.3392,10.1129-12.4648,4.7082-5.7,8.84-4.6458,12.76.998,13.7207,19.7528,27.7685,39.2868,41.1372,59.272,5.3674,8.0238,6.615,19.17,19.6318,20.4524,1.8652.1837,4.4224,7.6322,4.2313,11.6027-.56,11.6283,2.0176,19.6376,13.6236,25.9565,6.13,3.3374,11.5241,13.7612,11.7468,21.15,1.1667,38.7088.9851,77.4763.4064,116.2106-.27,18.0668-10.455,27.3453-29.913,27.7094C334.2381,541.93,303.3748,541.507,272.52,541.5129Zm-77.4445-75.2477c-3.6645-.6326-15.2328-2.3671-20.7826,3.1437-2.9923,2.9712-3.17,8.76-3.3305,20.0485-.0379,2.6691-.0167,5.34.0167,8.0092.2787,22.301,1.57,23.8854,23.9674,23.9794q73.3872.3083,146.7765.0737c35.5461-.0606,35.3258-.3847,34.1655-35.927-.2146-6.5745-1.4931-11.087-4.46-13.8788-4.456-4.1929-11.1318-3.7244-13.5152-3.5918C348.6863,468.6355,236.4142,473.4021,195.0751,466.2652ZM273.33,341.6959c-26.0544,0-52.1092-.0607-78.1625.1045-2.3147.0147-4.62,1.5-6.93,2.3024,1.8119,1.6735,3.359,4.0734,5.499,4.8471a32.1415,32.1415,0,0,0,9.8609,1.4027c31.9962.938,63.9927,2.248,95.9952,2.4374,15.9849.0946,32.0065-1.66,47.955-3.1692,3.4528-.3268,6.6634-3.1918,9.9856-4.8877-3.3489-1.0083-6.6892-2.8568-10.0479-2.89C322.7693,341.5941,298.05,341.7083,273.33,341.6959Zm75.1368,19.58c3.6374-1.22,6.58-2.4161,8.552-3.2633a31.4432,31.4432,0,0,0-8.3165-3.7575,33.3125,33.3125,0,0,0-14.6935-.6588c-13.81,2.2056-47.4309,4.1987-66.6682,3.7227-25.6351-.6344-44.5956-3.0639-44.5957-3.0639A65.945,65.945,0,0,0,201.2,354.73a63.6649,63.6649,0,0,0-11.8337,3.495,413.84,413.84,0,0,0,58.4975,9.01c18.48,1.5,33.7909.9856,64.4125-.043C320.7834,366.9058,333.2918,366.3641,348.4666,361.2761Z" transform="translate(-150.8673 -254.2117)" fill="#f9b233"/>
  <path d="M527.7838,491.5392c-.4906,8.4194-.2637,12.5108-1.0443,16.4017-2.2065,10.9972-7.6664,13.3369-17.0382,7.1027a46.6313,46.6313,0,0,1-10.2714-9.5429c-32.2583-40.1114-51.735-85.6807-56.5271-136.884-.765-8.1743,4.1152-16.8726,6.3855-25.3287,7.11,4.4674,15.985,7.4931,21.044,13.6358C503.5975,397.3149,520.7865,444.541,527.7838,491.5392Z" transform="translate(-150.8673 -254.2117)" fill="#f9b233"/>
  <path d="M426.0914,352.0359c1.4374,3.3763,3.9645,6.6953,4.1471,10.1376,2.3217,43.7625,18.1123,83.1719,39.773,120.4444,7.3111,12.58,16.4755,24.32,26.1731,35.2268,7.9956,8.9927,2.981,11.5381-4.7778,12.8473-13.39,2.2594-21.0863-7.1887-28.0025-16.0633a244.4923,244.4923,0,0,1-44.1715-89.0757,303.59,303.59,0,0,1-8.5354-54.9155c-.4374-6.1544,5.9514-12.79,9.22-19.2056Z" transform="translate(-150.8673 -254.2117)" fill="#f9b233"/>
</svg>
